<?xml version="1.0" encoding="UTF-8" standalone="no"?>
<!DOCTYPE svg PUBLIC "-//W3C//DTD SVG 1.1//EN" "http://www.w3.org/Graphics/SVG/1.1/DTD/svg11.dtd">
<svg xmlns="http://www.w3.org/2000/svg" version="1.1" viewBox="0.00 0.00 311.00 162.00">
<g stroke-width="2.00" fill="none" stroke-linecap="butt">
<path stroke="#f08e97" vector-effect="non-scaling-stroke" d="
  M 232.52 96.10
  A 0.35 0.35 0.0 0 1 232.85 96.33
  L 236.67 107.11
  A 0.35 0.35 0.0 0 0 237.00 107.34
  L 248.44 107.36
  A 0.35 0.35 0.0 0 0 248.77 106.89
  L 229.34 54.88
  A 0.35 0.35 0.0 0 0 229.02 54.65
  L 218.33 54.57
  A 0.35 0.35 0.0 0 0 218.00 54.80
  L 198.53 106.91
  A 0.35 0.35 0.0 0 0 198.85 107.38
  L 210.05 107.38
  A 0.35 0.35 0.0 0 0 210.38 107.14
  L 214.12 96.31
  A 0.35 0.35 0.0 0 1 214.45 96.07
  L 232.52 96.10"
/>
<path stroke="#f08e97" vector-effect="non-scaling-stroke" d="
  M 23.49 90.26
  L 28.74 90.28
  A 1.65 1.65 0.0 0 1 30.16 91.09
  L 39.35 106.81
  A 1.27 1.27 0.0 0 0 40.44 107.43
  L 52.77 107.39
  A 0.29 0.28 -15.9 0 0 53.01 106.96
  L 42.05 88.74
  Q 41.69 88.14 42.30 87.80
  Q 50.86 83.05 51.56 74.27
  C 52.61 61.21 44.20 54.98 32.00 54.83
  Q 21.76 54.70 11.61 54.80
  A 0.44 0.44 0.0 0 0 11.18 55.24
  L 11.16 107.08
  A 0.30 0.30 0.0 0 0 11.46 107.38
  L 22.54 107.41
  A 0.45 0.45 0.0 0 0 22.99 106.96
  L 22.98 90.76
  Q 22.98 90.25 23.49 90.26"
/>
<path stroke="#f08e97" vector-effect="non-scaling-stroke" d="
  M 76.47 97.27
  A 0.47 0.47 0.0 0 1 76.00 96.80
  L 75.96 86.55
  A 0.47 0.47 0.0 0 1 76.43 86.08
  L 96.60 85.99
  A 0.47 0.47 0.0 0 0 97.07 85.52
  L 97.09 76.37
  A 0.47 0.47 0.0 0 0 96.62 75.90
  L 76.46 75.80
  A 0.47 0.47 0.0 0 1 75.99 75.33
  L 75.95 65.53
  A 0.47 0.47 0.0 0 1 76.42 65.06
  L 99.52 65.00
  A 0.47 0.47 0.0 0 0 99.99 64.53
  L 100.00 55.28
  A 0.47 0.47 0.0 0 0 99.53 54.81
  L 64.72 54.78
  A 0.47 0.47 0.0 0 0 64.25 55.25
  L 64.22 106.91
  A 0.47 0.47 0.0 0 0 64.69 107.38
  L 86.19 107.37
  A 0.47 0.47 0.0 0 0 86.60 107.12
  L 91.38 97.95
  A 0.47 0.47 0.0 0 0 90.96 97.26
  L 76.47 97.27"
/>
<path stroke="#80a7ce" vector-effect="non-scaling-stroke" d="
  M 140.27 55.35
  A 0.34 0.34 0.0 0 0 139.96 54.85
  L 126.39 54.89
  A 0.34 0.34 0.0 0 0 126.09 55.07
  L 98.79 106.88
  A 0.34 0.34 0.0 0 0 99.09 107.38
  L 112.62 107.37
  A 0.34 0.34 0.0 0 0 112.92 107.19
  L 140.27 55.35"
/>
<path stroke="#f08e97" vector-effect="non-scaling-stroke" d="
  M 152.21 75.69
  Q 152.21 74.86 152.72 75.52
  L 164.02 90.31
  Q 164.58 91.04 165.43 90.68
  Q 165.93 90.46 166.60 89.56
  Q 171.95 82.43 177.08 75.52
  Q 177.76 74.60 177.76 75.75
  L 177.77 106.83
  Q 177.77 107.40 178.33 107.40
  L 188.68 107.42
  Q 189.27 107.42 189.27 106.83
  L 189.27 55.49
  Q 189.27 54.93 188.70 54.89
  C 185.49 54.68 182.28 54.86 179.07 54.73
  Q 177.08 54.65 175.76 56.49
  Q 170.47 63.95 165.36 71.47
  A 0.34 0.34 0.0 0 1 164.80 71.47
  L 153.50 55.47
  A 0.61 0.61 0.0 0 0 152.46 55.53
  L 141.38 76.63
  A 5.09 5.08 58.7 0 0 140.81 78.97
  L 140.78 106.74
  Q 140.78 107.32 141.36 107.32
  L 151.68 107.38
  A 0.56 0.56 0.0 0 0 152.24 106.82
  L 152.21 75.69"
/>
<path stroke="#f08e97" vector-effect="non-scaling-stroke" d="
  M 277.10 70.95
  A 0.34 0.34 0.0 0 1 276.50 70.95
  L 267.73 54.93
  A 0.34 0.34 0.0 0 0 267.43 54.75
  L 254.76 54.81
  A 0.34 0.34 0.0 0 0 254.47 55.32
  L 269.66 80.51
  A 0.34 0.34 0.0 0 1 269.66 80.87
  L 253.85 106.83
  A 0.34 0.34 0.0 0 0 254.14 107.35
  L 266.51 107.36
  A 0.34 0.34 0.0 0 0 266.81 107.19
  L 276.25 90.36
  A 0.34 0.34 0.0 0 1 276.85 90.36
  L 286.24 107.15
  A 0.34 0.34 0.0 0 0 286.54 107.32
  L 299.16 107.36
  A 0.34 0.34 0.0 0 0 299.46 106.84
  L 283.59 80.72
  A 0.34 0.34 0.0 0 1 283.59 80.36
  L 298.96 55.32
  A 0.34 0.34 0.0 0 0 298.68 54.80
  L 286.29 54.74
  A 0.34 0.34 0.0 0 0 285.99 54.92
  L 277.10 70.95"
/>
<path stroke="#f08e97" vector-effect="non-scaling-stroke" d="
  M 217.96 85.67
  A 0.34 0.34 0.0 0 0 218.28 86.12
  L 228.65 86.16
  A 0.34 0.34 0.0 0 0 228.97 85.71
  L 223.84 70.89
  A 0.34 0.34 0.0 0 0 223.19 70.88
  L 217.96 85.67"
/>
<path stroke="#f08e97" vector-effect="non-scaling-stroke" d="
  M 22.94 65.60
  L 22.94 79.78
  A 0.57 0.57 0.0 0 0 23.51 80.35
  L 32.04 80.35
  A 7.70 7.14 -0.0 0 0 39.74 73.21
  L 39.74 72.17
  A 7.70 7.14 0.0 0 0 32.04 65.03
  L 23.51 65.03
  A 0.57 0.57 0.0 0 0 22.94 65.60"
/>
</g>
<path fill="#ffffff" d="
  M 0.00 0.00
  L 311.00 0.00
  L 311.00 162.00
  L 0.00 162.00
  L 0.00 0.00
  Z
  M 232.52 96.10
  A 0.35 0.35 0.0 0 1 232.85 96.33
  L 236.67 107.11
  A 0.35 0.35 0.0 0 0 237.00 107.34
  L 248.44 107.36
  A 0.35 0.35 0.0 0 0 248.77 106.89
  L 229.34 54.88
  A 0.35 0.35 0.0 0 0 229.02 54.65
  L 218.33 54.57
  A 0.35 0.35 0.0 0 0 218.00 54.80
  L 198.53 106.91
  A 0.35 0.35 0.0 0 0 198.85 107.38
  L 210.05 107.38
  A 0.35 0.35 0.0 0 0 210.38 107.14
  L 214.12 96.31
  A 0.35 0.35 0.0 0 1 214.45 96.07
  L 232.52 96.10
  Z
  M 23.49 90.26
  L 28.74 90.28
  A 1.65 1.65 0.0 0 1 30.16 91.09
  L 39.35 106.81
  A 1.27 1.27 0.0 0 0 40.44 107.43
  L 52.77 107.39
  A 0.29 0.28 -15.9 0 0 53.01 106.96
  L 42.05 88.74
  Q 41.69 88.14 42.30 87.80
  Q 50.86 83.05 51.56 74.27
  C 52.61 61.21 44.20 54.98 32.00 54.83
  Q 21.76 54.70 11.61 54.80
  A 0.44 0.44 0.0 0 0 11.18 55.24
  L 11.16 107.08
  A 0.30 0.30 0.0 0 0 11.46 107.38
  L 22.54 107.41
  A 0.45 0.45 0.0 0 0 22.99 106.96
  L 22.98 90.76
  Q 22.98 90.25 23.49 90.26
  Z
  M 76.47 97.27
  A 0.47 0.47 0.0 0 1 76.00 96.80
  L 75.96 86.55
  A 0.47 0.47 0.0 0 1 76.43 86.08
  L 96.60 85.99
  A 0.47 0.47 0.0 0 0 97.07 85.52
  L 97.09 76.37
  A 0.47 0.47 0.0 0 0 96.62 75.90
  L 76.46 75.80
  A 0.47 0.47 0.0 0 1 75.99 75.33
  L 75.95 65.53
  A 0.47 0.47 0.0 0 1 76.42 65.06
  L 99.52 65.00
  A 0.47 0.47 0.0 0 0 99.99 64.53
  L 100.00 55.28
  A 0.47 0.47 0.0 0 0 99.53 54.81
  L 64.72 54.78
  A 0.47 0.47 0.0 0 0 64.25 55.25
  L 64.22 106.91
  A 0.47 0.47 0.0 0 0 64.69 107.38
  L 86.19 107.37
  A 0.47 0.47 0.0 0 0 86.60 107.12
  L 91.38 97.95
  A 0.47 0.47 0.0 0 0 90.96 97.26
  L 76.47 97.27
  Z
  M 140.27 55.35
  A 0.34 0.34 0.0 0 0 139.96 54.85
  L 126.39 54.89
  A 0.34 0.34 0.0 0 0 126.09 55.07
  L 98.79 106.88
  A 0.34 0.34 0.0 0 0 99.09 107.38
  L 112.62 107.37
  A 0.34 0.34 0.0 0 0 112.92 107.19
  L 140.27 55.35
  Z
  M 152.21 75.69
  Q 152.21 74.86 152.72 75.52
  L 164.02 90.31
  Q 164.58 91.04 165.43 90.68
  Q 165.93 90.46 166.60 89.56
  Q 171.95 82.43 177.08 75.52
  Q 177.76 74.60 177.76 75.75
  L 177.77 106.83
  Q 177.77 107.40 178.33 107.40
  L 188.68 107.42
  Q 189.27 107.42 189.27 106.83
  L 189.27 55.49
  Q 189.27 54.93 188.70 54.89
  C 185.49 54.68 182.28 54.86 179.07 54.73
  Q 177.08 54.65 175.76 56.49
  Q 170.47 63.95 165.36 71.47
  A 0.34 0.34 0.0 0 1 164.80 71.47
  L 153.50 55.47
  A 0.61 0.61 0.0 0 0 152.46 55.53
  L 141.38 76.63
  A 5.09 5.08 58.7 0 0 140.81 78.97
  L 140.78 106.74
  Q 140.78 107.32 141.36 107.32
  L 151.68 107.38
  A 0.56 0.56 0.0 0 0 152.24 106.82
  L 152.21 75.69
  Z
  M 277.10 70.95
  A 0.34 0.34 0.0 0 1 276.50 70.95
  L 267.73 54.93
  A 0.34 0.34 0.0 0 0 267.43 54.75
  L 254.76 54.81
  A 0.34 0.34 0.0 0 0 254.47 55.32
  L 269.66 80.51
  A 0.34 0.34 0.0 0 1 269.66 80.87
  L 253.85 106.83
  A 0.34 0.34 0.0 0 0 254.14 107.35
  L 266.51 107.36
  A 0.34 0.34 0.0 0 0 266.81 107.19
  L 276.25 90.36
  A 0.34 0.34 0.0 0 1 276.85 90.36
  L 286.24 107.15
  A 0.34 0.34 0.0 0 0 286.54 107.32
  L 299.16 107.36
  A 0.34 0.34 0.0 0 0 299.46 106.84
  L 283.59 80.72
  A 0.34 0.34 0.0 0 1 283.59 80.36
  L 298.96 55.32
  A 0.34 0.34 0.0 0 0 298.68 54.80
  L 286.29 54.74
  A 0.34 0.34 0.0 0 0 285.99 54.92
  L 277.10 70.95
  Z"
/>
<path fill="#e01d2e" d="
  M 232.52 96.10
  L 214.45 96.07
  A 0.35 0.35 0.0 0 0 214.12 96.31
  L 210.38 107.14
  A 0.35 0.35 0.0 0 1 210.05 107.38
  L 198.85 107.38
  A 0.35 0.35 0.0 0 1 198.53 106.91
  L 218.00 54.80
  A 0.35 0.35 0.0 0 1 218.33 54.57
  L 229.02 54.65
  A 0.35 0.35 0.0 0 1 229.34 54.88
  L 248.77 106.89
  A 0.35 0.35 0.0 0 1 248.44 107.36
  L 237.00 107.34
  A 0.35 0.35 0.0 0 1 236.67 107.11
  L 232.85 96.33
  A 0.35 0.35 0.0 0 0 232.52 96.10
  Z
  M 217.96 85.67
  A 0.34 0.34 0.0 0 0 218.28 86.12
  L 228.65 86.16
  A 0.34 0.34 0.0 0 0 228.97 85.71
  L 223.84 70.89
  A 0.34 0.34 0.0 0 0 223.19 70.88
  L 217.96 85.67
  Z"
/>
<path fill="#e01d2e" d="
  M 22.98 90.76
  L 22.99 106.96
  A 0.45 0.45 0.0 0 1 22.54 107.41
  L 11.46 107.38
  A 0.30 0.30 0.0 0 1 11.16 107.08
  L 11.18 55.24
  A 0.44 0.44 0.0 0 1 11.61 54.80
  Q 21.76 54.70 32.00 54.83
  C 44.20 54.98 52.61 61.21 51.56 74.27
  Q 50.86 83.05 42.30 87.80
  Q 41.69 88.14 42.05 88.74
  L 53.01 106.96
  A 0.29 0.28 -15.9 0 1 52.77 107.39
  L 40.44 107.43
  A 1.27 1.27 0.0 0 1 39.35 106.81
  L 30.16 91.09
  A 1.65 1.65 0.0 0 0 28.74 90.28
  L 23.49 90.26
  Q 22.98 90.25 22.98 90.76
  Z
  M 22.94 65.60
  L 22.94 79.78
  A 0.57 0.57 0.0 0 0 23.51 80.35
  L 32.04 80.35
  A 7.70 7.14 -0.0 0 0 39.74 73.21
  L 39.74 72.17
  A 7.70 7.14 0.0 0 0 32.04 65.03
  L 23.51 65.03
  A 0.57 0.57 0.0 0 0 22.94 65.60
  Z"
/>
<path fill="#e01d2e" d="
  M 76.47 97.27
  L 90.96 97.26
  A 0.47 0.47 0.0 0 1 91.38 97.95
  L 86.60 107.12
  A 0.47 0.47 0.0 0 1 86.19 107.37
  L 64.69 107.38
  A 0.47 0.47 0.0 0 1 64.22 106.91
  L 64.25 55.25
  A 0.47 0.47 0.0 0 1 64.72 54.78
  L 99.53 54.81
  A 0.47 0.47 0.0 0 1 100.00 55.28
  L 99.99 64.53
  A 0.47 0.47 0.0 0 1 99.52 65.00
  L 76.42 65.06
  A 0.47 0.47 0.0 0 0 75.95 65.53
  L 75.99 75.33
  A 0.47 0.47 0.0 0 0 76.46 75.80
  L 96.62 75.90
  A 0.47 0.47 0.0 0 1 97.09 76.37
  L 97.07 85.52
  A 0.47 0.47 0.0 0 1 96.60 85.99
  L 76.43 86.08
  A 0.47 0.47 0.0 0 0 75.96 86.55
  L 76.00 96.80
  A 0.47 0.47 0.0 0 0 76.47 97.27
  Z"
/>
<path fill="#014e9c" d="
  M 140.27 55.35
  L 112.92 107.19
  A 0.34 0.34 0.0 0 1 112.62 107.37
  L 99.09 107.38
  A 0.34 0.34 0.0 0 1 98.79 106.88
  L 126.09 55.07
  A 0.34 0.34 0.0 0 1 126.39 54.89
  L 139.96 54.85
  A 0.34 0.34 0.0 0 1 140.27 55.35
  Z"
/>
<path fill="#e01d2e" d="
  M 152.21 75.69
  L 152.24 106.82
  A 0.56 0.56 0.0 0 1 151.68 107.38
  L 141.36 107.32
  Q 140.78 107.32 140.78 106.74
  L 140.81 78.97
  A 5.09 5.08 58.7 0 1 141.38 76.63
  L 152.46 55.53
  A 0.61 0.61 0.0 0 1 153.50 55.47
  L 164.80 71.47
  A 0.34 0.34 0.0 0 0 165.36 71.47
  Q 170.47 63.95 175.76 56.49
  Q 177.08 54.65 179.07 54.73
  C 182.28 54.86 185.49 54.68 188.70 54.89
  Q 189.27 54.93 189.27 55.49
  L 189.27 106.83
  Q 189.27 107.42 188.68 107.42
  L 178.33 107.40
  Q 177.77 107.40 177.77 106.83
  L 177.76 75.75
  Q 177.76 74.60 177.08 75.52
  Q 171.95 82.43 166.60 89.56
  Q 165.93 90.46 165.43 90.68
  Q 164.58 91.04 164.02 90.31
  L 152.72 75.52
  Q 152.21 74.86 152.21 75.69
  Z"
/>
<path fill="#e01d2e" d="
  M 277.10 70.95
  L 285.99 54.92
  A 0.34 0.34 0.0 0 1 286.29 54.74
  L 298.68 54.80
  A 0.34 0.34 0.0 0 1 298.96 55.32
  L 283.59 80.36
  A 0.34 0.34 0.0 0 0 283.59 80.72
  L 299.46 106.84
  A 0.34 0.34 0.0 0 1 299.16 107.36
  L 286.54 107.32
  A 0.34 0.34 0.0 0 1 286.24 107.15
  L 276.85 90.36
  A 0.34 0.34 0.0 0 0 276.25 90.36
  L 266.81 107.19
  A 0.34 0.34 0.0 0 1 266.51 107.36
  L 254.14 107.35
  A 0.34 0.34 0.0 0 1 253.85 106.83
  L 269.66 80.87
  A 0.34 0.34 0.0 0 0 269.66 80.51
  L 254.47 55.32
  A 0.34 0.34 0.0 0 1 254.76 54.81
  L 267.43 54.75
  A 0.34 0.34 0.0 0 1 267.73 54.93
  L 276.50 70.95
  A 0.34 0.34 0.0 0 0 277.10 70.95
  Z"
/>
<path fill="#ffffff" d="
  M 22.94 65.60
  A 0.57 0.57 0.0 0 1 23.51 65.03
  L 32.04 65.03
  A 7.70 7.14 0.0 0 1 39.74 72.17
  L 39.74 73.21
  A 7.70 7.14 0.0 0 1 32.04 80.35
  L 23.51 80.35
  A 0.57 0.57 0.0 0 1 22.94 79.78
  L 22.94 65.60
  Z"
/>
<path fill="#ffffff" d="
  M 217.96 85.67
  L 223.19 70.88
  A 0.34 0.34 0.0 0 1 223.84 70.89
  L 228.97 85.71
  A 0.34 0.34 0.0 0 1 228.65 86.16
  L 218.28 86.12
  A 0.34 0.34 0.0 0 1 217.96 85.67
  Z"
/>
</svg>
