<?xml version="1.0" encoding="UTF-8"?>
<svg width="636px" height="129px" viewBox="0 0 636 129" version="1.1" xmlns="http://www.w3.org/2000/svg" xmlns:xlink="http://www.w3.org/1999/xlink">
    <!-- Generator: Sketch 47.1 (45422) - http://www.bohemiancoding.com/sketch -->
    <title>Logo Saltedge</title>
    <desc>Created with Sketch.</desc>
    <defs></defs>
    <g id="Page-1" stroke="none" stroke-width="1" fill="none" fill-rule="evenodd">
        <g id="Logo-Saltedge" fill-rule="nonzero" fill="#272727">
            <path d="M188.848729,80.0973451 C188.848729,83.5265487 188.182997,86.5132743 186.962489,89.1681416 C185.741981,91.9336283 183.744785,94.2566372 181.303769,96.1371681 C178.862752,98.0176991 175.977914,99.4557522 172.649255,100.340708 C169.431551,101.225664 165.770026,101.668142 161.775635,101.668142 C157.559334,101.668142 153.786854,101.336283 150.458195,100.783186 C147.01858,100.230088 144.133742,99.3451327 141.692726,98.2389381 L140.472217,97.6858407 L140.472217,96.3584071 L140.472217,88.6150442 L140.472217,85.2964602 L143.578966,86.6238938 C144.910429,87.1769912 146.352848,87.7300885 147.906223,88.1725664 C149.348642,88.6150442 151.012971,89.0575221 152.566345,89.3893805 C154.230675,89.7212389 155.784049,89.9424779 157.337423,90.1637168 C158.890798,90.2743363 160.555127,90.3849558 162.108501,90.3849558 C164.660473,90.3849558 166.879579,90.1637168 168.654864,89.7212389 C170.430149,89.2787611 171.872568,88.6150442 172.982121,87.840708 C174.091674,87.0663717 174.868361,86.0707965 175.423138,84.9646018 C175.977914,83.8584071 176.199825,82.5309735 176.199825,81.0929204 C176.199825,80.0973451 176.088869,79.1017699 175.866959,78.3274336 C175.645048,77.5530973 175.423138,76.8893805 175.090272,76.3362832 L175.090272,76.3362832 C174.757406,75.7831858 174.202629,75.2300885 173.536897,74.5663717 C172.871166,73.9026549 171.983523,73.3495575 170.984926,72.7964602 L170.984926,72.7964602 C169.875372,72.1327434 168.543909,71.4690265 166.879579,70.8053097 C165.21525,70.1415929 163.218054,69.3672566 160.887993,68.4823009 L160.887993,68.4823009 C157.448379,67.2654867 154.563541,65.9380531 152.122524,64.5 C149.570552,63.0619469 147.573357,61.4026549 146.019982,59.6327434 C144.466608,57.8628319 143.2461,55.7610619 142.469413,53.4380531 C141.692726,51.1150442 141.248904,48.5707965 141.248904,45.8053097 C141.248904,42.8185841 141.803681,40.0530973 143.024189,37.619469 C144.133742,35.1858407 145.909027,33.0840708 148.239089,31.3141593 L148.239089,31.3141593 C150.458195,29.5442478 153.121122,28.2168142 156.00596,27.3318584 C158.890798,26.4469027 162.108501,26.0044248 165.659071,26.0044248 C169.320596,26.0044248 172.76021,26.3362832 176.088869,27 C179.417528,27.6637168 182.635232,28.659292 185.741981,29.9867257 L187.628221,30.7610619 L186.962489,32.6415929 L184.410517,39.7212389 L183.63383,41.9336283 L181.525679,41.0486726 C178.751797,39.9424779 176.088869,39.0575221 173.314987,38.5044248 C170.65206,37.9513274 168.100088,37.619469 165.43716,37.619469 C163.439965,37.619469 161.775635,37.840708 160.222261,38.1725664 C158.779842,38.5044248 157.670289,39.1681416 156.671691,39.8318584 C155.784049,40.4955752 155.007362,41.380531 154.563541,42.2654867 C154.11972,43.2610619 153.897809,44.3672566 153.897809,45.6946903 C153.897809,46.800885 154.008764,47.6858407 154.11972,48.460177 L154.11972,48.460177 C154.34163,49.2345133 154.563541,49.8982301 154.896407,50.4513274 C155.229273,51.0044248 155.673094,51.5575221 156.338826,52.2212389 C157.004557,52.8849558 157.781245,53.4380531 158.668887,53.9911504 C159.667485,54.5442478 160.887993,55.2079646 162.441367,55.8716814 C163.994741,56.5353982 165.880982,57.3097345 167.989132,58.0840708 L167.989132,58.0840708 C171.761613,59.4115044 174.979316,60.8495575 177.642244,62.2876106 C180.416126,63.8362832 182.524277,65.3849558 184.077651,67.0442478 C185.631025,68.8141593 186.851534,70.6946903 187.628221,72.9070796 C188.404908,75.0088496 188.848729,77.4424779 188.848729,80.0973451 L188.848729,80.0973451 Z M94.7586328,93.5929204 L2,127 L2,105.429204 L94.7586328,72.0221239 L94.7586328,93.5929204 L94.7586328,93.5929204 Z M94.7586328,23.5707965 L2,56.9778761 L2,35.4070796 L94.7586328,2 L94.7586328,23.5707965 L94.7586328,23.5707965 Z M84.8836109,59.9646018 L84.8836109,43.3716814 L11.8750219,69.5884956 L11.8750219,86.1814159 L84.8836109,59.9646018 L84.8836109,59.9646018 Z M245.546889,99.3451327 L237.336196,78.659292 L212.260298,78.659292 L204.160561,99.3451327 L203.605784,100.783186 L202.05241,100.783186 L193.952673,100.783186 L190.734969,100.783186 L191.955478,97.7964602 L219.694303,27.9955752 L220.24908,26.5575221 L221.802454,26.5575221 L228.681683,26.5575221 L230.235057,26.5575221 L230.789833,27.9955752 L258.306748,97.7964602 L259.527257,100.783186 L256.087642,100.783186 L247.655039,100.783186 L246.101665,100.783186 L245.546889,99.3451327 L245.546889,99.3451327 Z M233.119895,66.9336283 L226.129711,48.460177 L226.129711,48.460177 C225.796845,47.5752212 225.353024,46.4690265 225.020158,45.4734513 C224.687292,46.4690265 224.354426,47.4646018 224.02156,48.460177 L224.02156,48.460177 L216.920421,67.0442478 L233.119895,67.0442478 L233.119895,66.9336283 Z M266.184575,98.5707965 L266.184575,29.1017699 L266.184575,26.8893805 L268.403681,26.8893805 L276.503418,26.8893805 L278.722524,26.8893805 L278.722524,29.1017699 L278.722524,89.0575221 L311.89816,89.0575221 L314.117266,89.0575221 L314.117266,91.2699115 L314.117266,98.5707965 L314.117266,100.783186 L311.89816,100.783186 L268.403681,100.783186 L266.184575,100.783186 L266.184575,98.5707965 L266.184575,98.5707965 Z M341.523225,100.783186 L343.742331,100.783186 L343.742331,98.5707965 L343.742331,38.3938053 L365.933392,38.3938053 L368.152498,38.3938053 L368.152498,36.1814159 L368.152498,28.9911504 L368.152498,26.7787611 L365.933392,26.7787611 L309.013322,26.7787611 L306.794216,26.7787611 L306.794216,28.9911504 L306.794216,36.1814159 L306.794216,38.3938053 L309.013322,38.3938053 L331.204382,38.3938053 L331.204382,98.460177 L331.204382,100.672566 L333.423488,100.672566 L341.523225,100.783186 L341.523225,100.783186 Z M424.961613,100.783186 L379.248028,100.783186 L377.028922,100.783186 L377.028922,98.5707965 L377.028922,29.1017699 L377.028922,26.8893805 L379.248028,26.8893805 L424.961613,26.8893805 L427.180719,26.8893805 L427.180719,29.1017699 L427.180719,36.2920354 L427.180719,38.5044248 L424.961613,38.5044248 L389.566871,38.5044248 L389.566871,56.5353982 L423.075372,56.5353982 L425.294479,56.5353982 L425.294479,58.7477876 L425.294479,65.9380531 L425.294479,68.1504425 L423.075372,68.1504425 L389.566871,68.1504425 L389.566871,89.2787611 L424.961613,89.2787611 L427.180719,89.2787611 L427.180719,91.4911504 L427.180719,98.6814159 L427.180719,100.893805 L424.961613,100.783186 L424.961613,100.783186 Z M501.187905,63.1725664 C501.187905,69.1460177 500.411218,74.4557522 498.746889,79.1017699 C497.082559,83.8584071 494.530587,87.840708 491.090973,91.0486726 C487.762314,94.3672566 483.546012,96.800885 478.774934,98.3495575 C474.003856,99.8982301 468.567046,100.783186 462.464505,100.783186 L443.047327,100.783186 L440.828221,100.783186 L440.828221,98.5707965 L440.828221,29.1017699 L440.828221,26.8893805 L443.047327,26.8893805 L464.4617,26.8893805 C470.120421,26.8893805 475.224365,27.6637168 479.773532,29.2123894 C484.322699,30.8716814 488.206135,33.1946903 491.423839,36.5132743 C494.641543,39.7212389 497.082559,43.5929204 498.746889,48.1283186 C500.411218,52.5530973 501.187905,57.5309735 501.187905,63.1725664 L501.187905,63.1725664 Z M488.206135,63.3938053 C488.206135,59.079646 487.651358,55.3185841 486.652761,52.1106195 C485.654163,49.0132743 484.100789,46.4690265 481.992638,44.3672566 C479.995443,42.2654867 477.332515,40.8274336 474.336722,39.7212389 C471.119018,38.6150442 467.457493,38.0619469 463.130237,38.0619469 L453.477125,38.0619469 L453.477125,89.1681416 L461.133041,89.1681416 C465.793164,89.1681416 469.787555,88.6150442 473.227169,87.5088496 C476.555828,86.4026549 479.329711,84.8539823 481.548817,82.6415929 C483.767923,80.539823 485.432252,77.8849558 486.541805,74.6769912 C487.540403,71.6902655 488.206135,67.8185841 488.206135,63.3938053 L488.206135,63.3938053 Z M545.01525,59.9646018 L568.87064,59.9646018 L571.089746,59.9646018 L571.089746,62.1769912 L571.089746,95.9159292 L571.089746,97.5752212 L569.536372,98.0176991 C567.650131,98.5707965 565.652936,99.1238938 563.766696,99.5663717 C561.880456,100.00885 559.88326,100.340708 557.886065,100.672566 C555.888869,101.004425 553.669763,101.225664 551.450657,101.336283 C549.120596,101.446903 546.790535,101.557522 544.238563,101.557522 C538.690798,101.557522 533.697809,100.672566 529.259597,99.0132743 C524.821385,97.3539823 521.048904,94.8097345 517.831201,91.380531 L517.831201,91.380531 C514.613497,88.0619469 512.283436,83.9690265 510.730061,79.3230088 C509.176687,74.6769912 508.4,69.4778761 508.4,63.6150442 C508.4,59.8539823 508.732866,56.3141593 509.509553,52.9955752 C510.28624,49.6769912 511.395793,46.4690265 512.949167,43.5929204 C514.502542,40.7168142 516.388782,38.0619469 518.718843,35.8495575 C520.937949,33.6371681 523.600876,31.7566372 526.485714,30.2079646 C529.370552,28.659292 532.588256,27.5530973 536.02787,26.7787611 C539.467485,26.0044248 543.018054,25.6725664 546.90149,25.6725664 C550.784926,25.6725664 554.557406,26.0044248 558.107975,26.7787611 C561.658545,27.5530973 565.209115,28.5486726 568.648729,29.9867257 L570.75688,30.8716814 L569.869238,32.8628319 L566.762489,40.0530973 L565.874847,42.0442478 L563.877651,41.159292 C560.881858,39.8318584 557.886065,38.9469027 555.001227,38.2831858 C552.116389,37.619469 549.342507,37.3982301 546.568624,37.3982301 C542.574233,37.3982301 539.023663,37.9513274 535.916915,39.1681416 C532.921122,40.2743363 530.258195,42.0442478 528.150044,44.2566372 C525.930938,46.579646 524.377564,49.2345133 523.268011,52.4424779 C522.158457,55.6504425 521.603681,59.4115044 521.603681,63.7256637 C521.603681,68.2610619 522.158457,72.1327434 523.268011,75.4513274 C524.266608,78.659292 525.930938,81.4247788 527.928133,83.6371681 C530.036284,85.8495575 532.588256,87.3982301 535.584049,88.5044248 C538.690798,89.6106195 542.352323,90.1637168 546.679579,90.1637168 C550.784926,90.1637168 554.779316,89.7212389 558.662752,88.9469027 L558.662752,71.4690265 L545.23716,71.4690265 L543.018054,71.4690265 L543.018054,69.2566372 L543.018054,62.0663717 L543.018054,59.8539823 L545.01525,59.9646018 L545.01525,59.9646018 Z M632.780894,100.783186 L587.067309,100.783186 L584.848203,100.783186 L584.848203,98.5707965 L584.848203,29.1017699 L584.848203,26.8893805 L587.067309,26.8893805 L632.780894,26.8893805 L635,26.8893805 L635,29.1017699 L635,36.2920354 L635,38.5044248 L632.780894,38.5044248 L597.386152,38.5044248 L597.386152,56.5353982 L630.894654,56.5353982 L633.11376,56.5353982 L633.11376,58.7477876 L633.11376,65.9380531 L633.11376,68.1504425 L630.894654,68.1504425 L597.386152,68.1504425 L597.386152,89.2787611 L632.780894,89.2787611 L635,89.2787611 L635,91.4911504 L635,98.6814159 L635,100.893805 L632.780894,100.783186 L632.780894,100.783186 Z" id="Shape"></path>
        </g>
    </g>
</svg>